#!OML:ASF F:\VICON\USERDATA\INSTALL\rory3\rory3.ASF
:FULLY-SPECIFIED
:DEGREES
556
root 0.0143203 17.916 -0.770257 1.35459 -7.59382 3.85905
lowerback -0.0806211 -1.7198 -5.54336
upperback -0.11878 -2.29612 2.70135
thorax 0.252473 -1.15811 5.90248
lowerneck -26.1279 1.86031 -9.26494
upperneck 0.119913 4.71981 5.85571
head 3.65884 2.65619 3.79654
rclavicle 7.98617e-014 -1.43125e-014
rhumerus -33.8332 -6.05677 -75.5692
rradius 34.5072
rwrist 19.4509
rhand -22.5225 6.9746
rfingers 7.12502
rthumb 3.9042 -22.9694
lclavicle 7.98617e-014 -1.43125e-014
lhumerus 58.7815 9.83648 55.0602
lradius 95.5096
lwrist -7.21954
lhand -33.432 6.84058
lfingers 7.12502
lthumb -6.63123 36.7168
rfemur -7.95271 6.41247 12.0169
rtibia 27.9719
rfoot -18.4705 -2.61614
rtoes 4.04906
lfemur 1.47893 -1.95432 -24.587
ltibia 11.4114
lfoot -10.2057 3.3219
ltoes -11.8478
557
root 0.0141208 17.9141 -0.772043 1.33962 -7.61465 3.90294
lowerback -0.0240852 -1.71234 -5.62322
upperback -0.136954 -2.28911 2.6949
thorax 0.2038 -1.15251 5.94366
lowerneck -26.1795 1.86836 -9.15076
upperneck 0.107595 4.70796 5.74559
head 3.66737 2.64378 3.74302
rclavicle -2.52953e-014 -2.14687e-014
rhumerus -33.8519 -5.98728 -75.6172
rradius 34.516
rwrist 19.3481
rhand -22.5054 6.81425
rfingers 7.12502
rthumb 3.92073 -23.1294
lclavicle -2.52953e-014 -2.14687e-014
lhumerus 58.9004 9.92851 55.0967
lradius 95.4572
lwrist -7.185
lhand -33.6181 6.72445
lfingers 7.12502
lthumb -6.81087 36.5949
rfemur -7.95643 6.46991 11.9745
rtibia 27.9746
rfoot -18.4816 -2.66411
rtoes 4.05994
lfemur 1.42087 -1.84126 -24.6238
ltibia 11.481
lfoot -10.2535 3.24515
ltoes -11.7623
558
root 0.0144355 17.9144 -0.77185 1.36946 -7.65231 3.87709
lowerback -0.0460309 -1.69362 -5.60907
upperback -0.150635 -2.26315 2.70509
thorax 0.198091 -1.13893 5.94618
lowerneck -26.2537 1.85651 -9.10619
upperneck 0.107381 4.6866 5.72195
head 3.68036 2.63247 3.72824
rclavicle 1.6847e-014 -2.46493e-014
rhumerus -33.888 -5.9609 -75.6361
rradius 34.57
rwrist 19.2874
rhand -22.4373 6.8046
rfingers 7.12502
rthumb 3.98648 -23.1378
lclavicle 1.6847e-014 -2.46493e-014
lhumerus 59.0362 10.0094 55.1742
lradius 95.4467
lwrist -7.32901
lhand -33.7067 6.5753
lfingers 7.12502
lthumb -6.89641 36.443
rfemur -8.00779 6.50781 11.9997
rtibia 27.9859
rfoot -18.4649 -2.65935
rtoes 3.96385
lfemur 1.4042 -1.80689 -24.5987
ltibia 11.5091
lfoot -10.2396 3.23838
ltoes -12.0872
559
root 0.015486 17.9162 -0.772351 1.37689 -7.67177 3.82799
lowerback -0.0419727 -1.69337 -5.5772
upperback -0.167655 -2.26324 2.73752
thorax 0.178329 -1.13791 5.96255
lowerneck -26.1711 1.86377 -9.20455
upperneck -0.0363215 4.71251 5.82987
head 3.61774 2.65374 3.77641
rclavicle -4.36332e-014 5.56597e-015
rhumerus -33.8887 -5.83473 -75.6413
rradius 34.5513
rwrist 19.2125
rhand -22.3485 6.7299
rfingers 7.12502
rthumb 4.07221 -23.2109
lclavicle -4.36332e-014 5.56597e-015
lhumerus 59.1104 10.1385 55.2335
lradius 95.4603
lwrist -7.42883
lhand -33.6192 6.62697
lfingers 7.12502
lthumb -6.81198 36.4974
rfemur -8.02266 6.51826 12.0562
rtibia 27.9804
rfoot -18.4534 -2.70019
rtoes 3.58793
lfemur 1.39959 -1.86457 -24.5503
ltibia 11.5551
lfoot -10.2511 3.27741
ltoes -12.105
560
root 0.016 17.9173 -0.773356 1.37059 -7.6869 3.81257
lowerback -0.00251963 -1.68982 -5.58105
upperback -0.184817 -2.26062 2.74425
thorax 0.13848 -1.13479 5.97352
lowerneck -26.1561 1.87754 -9.29404
upperneck -0.130028 4.74714 5.96807
head 3.57905 2.68129 3.8362
rclavicle 4.22417e-015 -2.70347e-014
rhumerus -33.8867 -5.83004 -75.6554
rradius 34.5345
rwrist 19.2169
rhand -22.1894 6.43389
rfingers 7.12502
rthumb 4.22592 -23.5039
lclavicle 4.22417e-015 -2.70347e-014
lhumerus 59.2003 10.2367 55.2318
lradius 95.4188
lwrist -7.49987
lhand -33.5001 6.62842
lfingers 7.12502
lthumb -6.697 36.5025
rfemur -8.01266 6.55195 12.0774
rtibia 27.9554
rfoot -18.4383 -2.74073
rtoes 3.3628
lfemur 1.37554 -1.8721 -24.5254
ltibia 11.605
lfoot -10.2821 3.27361
ltoes -11.7942
561
root 0.0184107 17.9168 -0.770219 1.3619 -7.73466 3.75999
lowerback -0.0164956 -1.66972 -5.50287
upperback -0.188089 -2.233 2.74223
thorax 0.135883 -1.12072 5.9267
lowerneck -26.0959 1.88704 -9.33011
upperneck -0.263939 4.76192 6.03876
head 3.5256 2.69477 3.86228
rclavicle 3.52843e-015 -7.95139e-015
rhumerus -33.8944 -5.98998 -75.6499
rradius 34.5027
rwrist 19.2771
rhand -22.0695 6.32803
rfingers 7.12502
rthumb 4.34166 -23.6075
lclavicle 3.52843e-015 -7.95139e-015
lhumerus 59.2557 10.3013 55.218
lradius 95.3735
lwrist -7.41979
lhand -33.4537 6.48233
lfingers 7.12502
lthumb -6.65223 36.3578
rfemur -7.9855 6.55282 12.127
rtibia 27.9291
rfoot -18.406 -2.7018
rtoes 3.34171
lfemur 1.39922 -1.83867 -24.4844
ltibia 11.6119
lfoot -10.2539 3.30402
ltoes -11.7629
562
root 0.0204182 17.9171 -0.766156 1.35274 -7.7836 3.77931
lowerback -0.0063787 -1.66814 -5.5092
upperback -0.256875 -2.23194 2.74206
thorax 0.0591961 -1.11574 5.93186
lowerneck -25.9744 1.89514 -9.38067
upperneck -0.256463 4.77292 6.10069
head 3.50859 2.70278 3.8884
rclavicle -1.54307e-014 3.18055e-015
rhumerus -33.9493 -6.08062 -75.6056
rradius 34.3625
rwrist 19.4056
rhand -22.1293 6.52235
rfingers 7.12502
rthumb 4.28389 -23.4143
lclavicle -1.54307e-014 3.18055e-015
lhumerus 59.1919 10.32 55.2113
lradius 95.3652
lwrist -7.11948
lhand -33.4471 6.00861
lfingers 7.12502
lthumb -6.64586 35.8843
rfemur -7.96739 6.52117 12.086
rtibia 27.9053
rfoot -18.3569 -2.63392
rtoes 3.35629
lfemur 1.42041 -1.83671 -24.5287
ltibia 11.6244
lfoot -10.2354 3.37261
ltoes -11.897
563
root 0.020629 17.9169 -0.764442 1.3594 -7.78468 3.80902
lowerback 0.0209911 -1.6758 -5.56196
upperback -0.32967 -2.24425 2.7605
thorax -0.0268961 -1.11702 5.98361
lowerneck -25.8685 1.87372 -9.47463
upperneck -0.267272 4.75868 6.17975
head 3.48854 2.69977 3.9247
rclavicle 3.84648e-014 -8.74653e-015
rhumerus -34.0179 -6.01348 -75.5961
rradius 34.2937
rwrist 19.3593
rhand -22.2336 6.39638
rfingers 7.12502
rthumb 4.18318 -23.5423
lclavicle 3.84648e-014 -8.74653e-015
lhumerus 59.1834 10.36 55.2206
lradius 95.3579
lwrist -6.96491
lhand -33.4013 5.88616
lfingers 7.12502
lthumb -6.60159 35.7633
rfemur -7.94858 6.50745 12.0485
rtibia 27.8701
rfoot -18.3586 -2.62415
rtoes 3.49424
lfemur 1.38893 -1.8501 -24.5618
ltibia 11.6898
lfoot -10.2939 3.35834
ltoes -11.9976
564
root 0.0199907 17.9186 -0.765445 1.41854 -7.7672 3.72251
lowerback 0.00244119 -1.67085 -5.49418
upperback -0.335643 -2.23667 2.7866
thorax -0.0252599 -1.11323 5.97192
lowerneck -26.0027 1.83272 -9.49343
upperneck -0.244951 4.72025 6.20095
head 3.51588 2.68327 3.93477
rclavicle -5.61318e-014 1.27222e-014
rhumerus -33.9613 -6.05104 -75.6107
rradius 34.2286
rwrist 19.3764
rhand -22.2373 6.21074
rfingers 7.12502
rthumb 4.17961 -23.728
lclavicle -5.61318e-014 1.27222e-014
lhumerus 59.3679 10.4167 55.2821
lradius 95.2983
lwrist -7.21441
lhand -33.3299 5.93126
lfingers 7.12502
lthumb -6.53268 35.8105
rfemur -7.98792 6.52364 12.1486
rtibia 27.835
rfoot -18.3705 -2.68515
rtoes 3.26236
lfemur 1.30833 -1.83572 -24.4569
ltibia 11.7482
lfoot -10.3419 3.32204
ltoes -12.0079
